<svg version="1" xmlns="http://www.w3.org/2000/svg" width="933.333" height="933.333" viewBox="0 0 700.000000 700.000000"><path d="M343 11.8c-4 1.3-10.2 6.9-12.4 11.3-2.3 4.6-2.4 5.8-2.4 25.1 0 21.4-.3 26.3-2.8 44.8-1.5 11.7-6.9 35.5-10.6 46.7-2 6-2.1 6.2-6.2 6.8-19.7 3.2-49.9 15.5-70.3 28.7l-9.1 5.9-7.9-3.8c-29.4-14.4-58.2-35.2-80.9-58.4-8.3-8.5-9.2-9.8-9.7-14-2.6-21.7-26.1-34.5-46-25-17.6 8.4-24.2 29.5-14.5 46.1 4.9 8.2 14.5 14.6 23.7 15.7 5 .6 5.3.8 18.8 14.7 13.3 13.6 26 29.4 35.5 44.1 8.6 13.4 10.1 15.9 16.9 29.4l6.9 13.5-2.4 4c-9.9 17-20.4 44.7-23.1 61.3l-.7 4.2-8.1 2.5c-11.4 3.4-22.7 6.2-32.7 8-22.5 4.1-26.6 4.4-55.8 4.6-21.1.1-21.3.2-26.5 2.9-16 8.4-15.2 31.6 1.5 39.1 3.2 1.4 7.3 1.7 25.6 1.9 11.9 0 23.5.3 25.7.6 11.3 1.3 23.2 2.8 25 3.1 1.1.2 3.6.7 5.5 1 5.9 1 23 5.4 31.6 8l8.1 2.5 1.7 8.2c1.7 7.9 6.2 22.4 10.4 33.4 1.1 2.9 4.7 10.4 8 16.6l6 11.4-4.7 9.4c-15.2 30.4-32.5 55-54.8 78-12.9 13.2-13.5 13.6-18.2 14.2-17.8 2.1-30.7 19.3-27.9 37.2 4.1 26.6 35.9 37 55.2 18.2 5.6-5.6 9.6-13.8 9.6-20.1 0-3 1.5-4.8 13.8-16.8 7.6-7.3 19.2-17.4 25.7-22.4 11.9-8.9 28.8-20.4 30-20.4.4 0 1.9-.8 3.3-1.9 1.5-1 7.7-4.4 13.9-7.6l11.2-5.7 10.3 6.5c19.1 12.2 44.9 23 65.5 27.3l8.1 1.7 2.5 8.1c2.5 7.7 4.6 15.4 5.2 18.6.2.8.8 3.3 1.3 5.5.9 3.5 3.1 16.2 4.6 26.5.9 6.1 1.7 24.9 1.9 43 .3 18.6.6 20.2 5.9 26.2 3.2 3.7 10.4 6.8 15.8 6.8 7.8 0 15.8-4.9 19.6-12.1 1.9-3.5 1.9-3.1 2.5-40.1.3-15.4 2.2-31.7 5.4-46.8.9-4.1 1.8-8.2 2-9 .7-3.3 2.8-10.9 5.1-18.6 2.3-7.7 2.6-8.2 5.7-8.8 1.8-.3 4.3-.8 5.6-1.1 19-3.7 49.2-16.6 67.9-29l7.2-4.8 10.2 5.3c14.4 7.3 18 9.4 32.3 19 15.6 10.5 28.1 20.7 41.7 34 13.3 13.1 13.7 13.7 14.2 18.3 2.3 21.4 27.3 34.6 46.8 24.6 7.8-4 14.4-11.8 16.9-20.1 1.7-5.6 1.2-15-1.1-21.2-3.9-10.4-14.9-19-26.1-20.3-4.6-.5-5.3-1.1-17.1-13.2-14.3-14.7-15.4-16-24.3-27.7-3.7-4.9-7.3-9.7-8.1-10.7-.8-.9-1.4-2-1.4-2.4 0-.3-1-2-2.3-3.7-4.1-5.4-12.8-20.4-18.7-32.2l-5.7-11.5 7.2-14.2c7.4-14.7 14.1-33.3 17.1-47.3l1.7-8.1 4.6-1.6c5-1.8 29.4-8.1 35.1-9.1 5.6-1 15.1-2.4 20.5-3 2.8-.3 6.9-.8 9.3-1.1 2.3-.3 13.8-.6 25.5-.6 11.6-.1 22.5-.6 24.1-1 8.6-2.5 15.6-11.9 15.6-20.8-.1-7.7-5-16-11.6-19.4-4.5-2.3-8.5-2.6-30.9-2.8-32.2-.3-55.7-3.8-84.1-12.5l-8.1-2.6-1.8-8.1c-2.9-13.9-9.6-32.6-17.1-47.6l-7.2-14.4 6.6-12.6c10.1-19.6 19.8-34.9 31.6-50.1 7.6-9.8 9.1-11.5 22.4-25.1 11.8-12.1 12.6-12.7 17-13.1 10.8-1.1 22.3-10.2 26.2-20.6 8-21.4-7.3-44.2-29.7-44.3-7.7-.1-11.6.9-17.7 4.5-8.4 4.9-14.1 13.8-15.3 23.5-.5 4.8-1 5.4-12.2 16.3-12.9 12.5-17.6 16.8-26 23.2-16.2 12.4-33.3 23.2-50.4 31.8l-9.8 4.9-9.2-5.9c-20.4-13.2-50.6-25.5-70.3-28.7l-4.1-.6-2.6-8.2c-3.5-11.1-6.7-24.2-9.1-37.2-.2-1.1-.7-4.5-1.1-7.5-.4-3-.9-6.4-1.1-7.5-.6-2.8-1.5-25-1.8-43.5-.2-17.2-.9-19.4-7.2-25.4-5.1-4.8-14.7-6.9-21.4-4.8z"/></svg>