<svg version="1" xmlns="http://www.w3.org/2000/svg" width="933.333" height="933.333" viewBox="0 0 700.000000 700.000000"><path d="M475.5 1.6c-1.6.9-9.1 8-16.7 15.6-14.4 14.6-17.5 19.3-19.7 29.4-2.2 10.6.7 23.3 7.2 31.7 1.6 2.1 14.2 15 27.8 28.7 13.7 13.7 24.9 25.2 24.9 25.5 0 .4-7.2 7.9-16 16.7l-16 16-35-35.1c-19.3-19.4-36.2-35.6-37.6-36.1-4-1.6-8.6-1.2-12.1 1-4.2 2.5-30.9 29.4-33.7 34-4.9 7.7-6.4 18.8-3.9 27.5 1.9 6.4 4.6 10.8 10.6 17.1l4.8 5.2-114.7 114.8c-63 63.2-116 116.8-117.6 119.2-15.8 22.9-14.8 54.7 2.5 76.5l3 3.8-4.9 5.1c-2.7 2.8-7.3 7.3-10.3 10.2-8.5 8-11.1 12.2-11.1 17.4 0 5.4 1.6 7.7 13 19l8 7.9-62.9 63.1c-37.6 37.7-63.2 64.3-63.8 65.9-.5 1.5-.8 3.4-.7 4 .1.7.2 2.5.3 3.9.3 6.8 12.1 12.5 18.7 9.1 1.6-.9 30.8-29.5 64.9-63.6 34.1-34.2 62.4-62.1 62.9-62.1.4 0 4.7 3.9 9.5 8.6 4.7 4.8 9.5 9.2 10.6 9.9 2.8 1.9 8.3 2.5 11.4 1.4 1.4-.6 8.3-6.7 15.2-13.6l12.7-12.5 5.3 4c21.1 15.9 49.5 17.3 72.2 3.5 4.8-2.8 33.1-30.6 121.5-119.2L521 339.7l6 5.7c8.1 7.7 15.2 10.8 25 10.9 13 .1 16.8-2 34.8-19.7 8.5-8.3 16.3-16.4 17.4-17.9 2.6-3.7 3.3-8.6 1.6-12.6-.7-1.8-16.4-18.3-36.2-38.2l-35-35 15.9-15.9c8.8-8.8 16.3-16 16.7-16 .3 0 12.3 11.6 26.5 25.9 14.2 14.2 27.8 27 30.1 28.5 12.8 8.1 30.1 8 42.9-.2 2.7-1.7 11-9.4 18.5-16.9 14.5-14.8 15.6-16.8 13.6-24.2-.8-2.8-22-24.6-103.7-106.4C538.7 51.1 491.3 4 489.8 2.9c-3.7-2.7-10.6-3.3-14.3-1.3zm187.4 220.1c-7.6 8.5-11.7 11.5-16.2 12-2.9.4-5.4 0-7.3-1-3.5-1.9-170.6-169.2-172.4-172.6-1.6-3-1.5-8.2.1-11.2.7-1.3 4.2-5.5 7.8-9.2l6.5-6.8 92.5 92.5 92.5 92.5-3.5 3.8zm-135.1 43l46.2 46.2-9.1 9c-7.8 7.8-9.6 9.1-12.4 9.1-3 0-10.1-6.9-92.4-89.2-83.2-83.3-89.1-89.4-89.1-92.6 0-3 1.2-4.6 9.1-12.4l9-9 46.3 46.3c25.4 25.5 67 67.2 92.4 92.6zm6.8-96.9l13.2 13.2-16.1 16c-8.8 8.8-16.3 16-16.6 16-.9 0-28.1-27.7-28.1-28.6 0-.4 7.1-7.8 15.7-16.5 13.1-13.2 16-15.6 17.2-14.6.8.7 7.5 7.2 14.7 14.5zM501 320.4c0 .4-7.6 8.4-16.9 17.7L467.2 355H224.6c-1.3 0 24.8-26.8 76.5-78.5l78.4-78.5 60.7 60.7c33.5 33.5 60.8 61.2 60.8 61.7zM170.4 529.9c19.1 19.1 18.2 16.7 9.2 25.3-2.7 2.7-5.2 4.8-5.5 4.8-.3 0-8.2-7.7-17.5-17l-17-17 6.4-6.5c3.6-3.6 6.7-6.5 7-6.5.3 0 8.1 7.6 17.4 16.9z"/></svg>